<svg width="150" height="41" viewBox="0 0 150 41" fill="none" xmlns="http://www.w3.org/2000/svg">
<path fill-rule="evenodd" clip-rule="evenodd" d="M91.955 35.9965V36.8616C91.5399 36.4984 91.107 36.3254 90.6569 36.3254C90.1727 36.3254 89.7569 36.5155 89.4108 36.8616C89.0648 37.2077 88.9088 37.6406 88.9088 38.1597C88.9088 38.6788 89.0648 39.0768 89.4108 39.4229C89.7569 39.7861 90.172 39.9591 90.6569 39.9591C90.9168 39.9591 91.1412 39.9071 91.3142 39.8209C91.4181 39.786 91.5221 39.7348 91.6254 39.665C91.7293 39.5959 91.8504 39.5091 91.9543 39.4051V40.2703C91.5392 40.5124 91.1063 40.6334 90.6563 40.6334C89.9641 40.6334 89.376 40.3913 88.8911 39.9064C88.4068 39.4222 88.1641 38.8511 88.1641 38.159C88.1641 37.5531 88.372 36.9998 88.77 36.5326C89.272 35.9445 89.9122 35.6504 90.7082 35.6504C91.1412 35.6504 91.5563 35.7714 91.9543 35.9965H91.955Z" fill="white"/>
<path fill-rule="evenodd" clip-rule="evenodd" d="M94.6801 38.1248C94.6801 38.661 94.8703 39.0939 95.2163 39.44C95.5795 39.7861 95.9775 39.9591 96.4446 39.9591C96.9466 39.9591 97.3789 39.769 97.7249 39.4229C98.071 39.0768 98.244 38.6439 98.244 38.1426C98.244 37.6413 98.071 37.2084 97.7249 36.8623C97.396 36.5162 96.9637 36.3261 96.4617 36.3261C95.9597 36.3261 95.5446 36.5162 95.1985 36.8623C94.8525 37.1913 94.6794 37.6235 94.6794 38.1255L94.6801 38.1248ZM93.9531 38.1248C93.9531 37.4498 94.1952 36.8616 94.6972 36.3774C95.1992 35.8932 95.7874 35.6504 96.4795 35.6504C97.1716 35.6504 97.7427 35.8925 98.2447 36.3774C98.7289 36.8794 98.9717 37.4676 98.9717 38.1426C98.9717 38.8176 98.7296 39.4229 98.2276 39.9078C97.7434 40.392 97.1375 40.6348 96.4453 40.6348C95.8223 40.6348 95.269 40.4098 94.767 39.9946C94.2308 39.5104 93.9538 38.8874 93.9538 38.1255L93.9531 38.1248Z" fill="white"/>
<path fill-rule="evenodd" clip-rule="evenodd" d="M100.984 40.5491V35.4102L104.48 39.0787V35.7391H105.207V40.8432L101.711 37.1925V40.5491H100.984Z" fill="white"/>
<path fill-rule="evenodd" clip-rule="evenodd" d="M110.498 36.4452L109.91 36.8084C109.806 36.6182 109.702 36.4794 109.599 36.4274C109.495 36.3583 109.357 36.3235 109.201 36.3235C108.993 36.3235 108.82 36.3925 108.699 36.4965C108.561 36.6176 108.491 36.7564 108.491 36.9294C108.491 37.1544 108.664 37.3446 109.01 37.4834L109.494 37.6913C109.892 37.8472 110.169 38.0374 110.342 38.2624C110.533 38.4874 110.619 38.7644 110.619 39.0927C110.619 39.5427 110.481 39.9058 110.187 40.1999C109.875 40.494 109.511 40.6328 109.079 40.6328C108.647 40.6328 108.318 40.5118 108.041 40.2519C107.781 40.0098 107.608 39.6637 107.539 39.2137L108.283 39.0578C108.3 39.3348 108.37 39.5249 108.456 39.646C108.595 39.8539 108.819 39.9571 109.096 39.9571C109.321 39.9571 109.511 39.8703 109.667 39.715C109.823 39.5769 109.892 39.3861 109.892 39.1439C109.892 39.0578 109.875 38.9709 109.858 38.8841C109.823 38.815 109.788 38.7459 109.736 38.6761C109.667 38.6071 109.598 38.5551 109.511 38.486C109.425 38.434 109.321 38.3821 109.2 38.3301L108.733 38.14C108.093 37.863 107.764 37.4478 107.764 36.9116C107.764 36.5656 107.885 36.2544 108.162 36.0116C108.439 35.7695 108.785 35.6484 109.2 35.6484C109.754 35.6484 110.187 35.9083 110.498 36.4445V36.4452Z" fill="white"/>
<path fill-rule="evenodd" clip-rule="evenodd" d="M114.319 36.4343V40.5522H113.592V36.4343H112.484V35.7422H115.409V36.4343H114.319Z" fill="white"/>
<path fill-rule="evenodd" clip-rule="evenodd" d="M118.461 37.9567H118.703C119.378 37.9567 119.724 37.6968 119.724 37.1606C119.724 36.6764 119.395 36.4336 118.721 36.4336H118.461V37.9567H118.461ZM119.361 38.5107L120.849 40.5529H119.967L118.6 38.5805H118.461V40.5529H117.734V35.7422H118.582C119.223 35.7422 119.69 35.8632 119.967 36.1053C120.279 36.3652 120.434 36.7284 120.434 37.1606C120.434 37.4896 120.33 37.7837 120.14 38.0258C119.95 38.2857 119.69 38.4409 119.361 38.51L119.361 38.5107Z" fill="white"/>
<path fill-rule="evenodd" clip-rule="evenodd" d="M123.398 35.7422V38.6317C123.398 39.0469 123.467 39.3588 123.605 39.5489C123.813 39.8259 124.09 39.964 124.453 39.964C124.817 39.964 125.111 39.8259 125.302 39.5489C125.44 39.3588 125.509 39.0647 125.509 38.6317V35.7422H126.236V38.8397C126.236 39.3417 126.081 39.7568 125.769 40.0858C125.406 40.4489 124.973 40.6397 124.454 40.6397C123.935 40.6397 123.502 40.4496 123.156 40.0858C122.827 39.7568 122.672 39.3417 122.672 38.8397V35.7422H123.399H123.398Z" fill="white"/>
<path fill-rule="evenodd" clip-rule="evenodd" d="M130.233 36.4343V40.5522H129.506V36.4343H128.398V35.7422H131.341V36.4343H130.233Z" fill="white"/>
<path fill-rule="evenodd" clip-rule="evenodd" d="M133.883 38.1258C133.883 38.662 134.056 39.0949 134.419 39.441C134.765 39.787 135.18 39.9601 135.647 39.9601C136.149 39.9601 136.564 39.7699 136.91 39.4239C137.256 39.0778 137.429 38.6449 137.429 38.1436C137.429 37.6245 137.273 37.2093 136.927 36.8633C136.581 36.5172 136.166 36.3271 135.664 36.3271C135.162 36.3271 134.747 36.5172 134.401 36.8633C134.055 37.1922 133.882 37.6245 133.882 38.1265L133.883 38.1258ZM133.156 38.1258C133.156 37.4508 133.398 36.8626 133.883 36.3784C134.385 35.8942 134.973 35.6514 135.666 35.6514C136.358 35.6514 136.946 35.8935 137.431 36.3784C137.933 36.8804 138.175 37.4685 138.175 38.1436C138.175 38.8357 137.915 39.4239 137.431 39.9088C136.929 40.393 136.341 40.6358 135.631 40.6358C135.008 40.6358 134.455 40.4108 133.97 39.9956C133.416 39.5114 133.157 38.8884 133.157 38.1265L133.156 38.1258Z" fill="white"/>
<path fill-rule="evenodd" clip-rule="evenodd" d="M141.07 37.9567H141.295C141.987 37.9567 142.333 37.6968 142.333 37.1606C142.333 36.6764 141.987 36.4336 141.33 36.4336H141.071V37.9567H141.07ZM141.97 38.5107L143.458 40.5529H142.576L141.192 38.5805H141.071V40.5529H140.344V35.7422H141.192C141.832 35.7422 142.282 35.8632 142.576 36.1053C142.87 36.3652 143.026 36.7284 143.026 37.1606C143.026 37.4896 142.939 37.7837 142.749 38.0258C142.541 38.2857 142.282 38.4409 141.971 38.51L141.97 38.5107Z" fill="white"/>
<path fill-rule="evenodd" clip-rule="evenodd" d="M148.041 38.6987L147.314 37.0724L146.57 38.6987H148.041ZM148.335 39.3737H146.276L145.74 40.5501H144.961L147.331 35.4453L149.633 40.5501H148.837L148.335 39.3737H148.335Z" fill="white"/>
<path fill-rule="evenodd" clip-rule="evenodd" d="M49.6157 13.1934C49.6157 13.9026 49.6157 15.1836 49.5986 15.9967C49.5815 16.8099 49.5815 18.0902 49.5815 19.8034V25.7563C49.5815 26.5353 49.4776 27.2445 49.2875 27.9195C49.0973 28.5945 48.7684 29.1998 48.3012 29.7367C47.817 30.2907 47.142 30.7749 46.2591 31.1729C45.3768 31.571 44.4768 31.865 43.0405 32.0032L43.0234 30.134C44.0096 30.0301 44.2866 29.8741 44.8748 29.7189C45.463 29.5459 45.9479 29.286 46.363 28.9057C46.744 28.5426 47.038 28.0925 47.1933 27.5563C47.3663 27.0202 47.4532 26.328 47.4532 25.48V22.7634C47.4703 21.8812 47.4703 21.0502 47.4703 20.2719C47.4703 18.3686 47.4532 16.9665 47.4354 16.1014C47.4183 15.2191 47.4183 13.9039 47.4005 13.194H49.6157V13.1934Z" fill="white"/>
<path fill-rule="evenodd" clip-rule="evenodd" d="M62.8941 24.978C62.8941 24.13 62.7559 23.3168 62.479 22.5207C62.202 21.7246 61.7868 21.0674 61.2158 20.5134C60.8697 20.1845 60.4546 19.9252 59.9697 19.7344C59.4854 19.5443 59.0005 19.4574 58.4815 19.4574C57.8584 19.4574 57.3222 19.5614 56.8722 19.7515C56.4051 19.9594 55.9722 20.2535 55.5741 20.6858C55.107 21.1529 54.726 21.7588 54.4491 22.52C54.1892 23.2641 54.051 24.0431 54.051 24.8563C54.051 25.7563 54.1892 26.6037 54.4662 27.3656C54.7431 28.1268 55.1932 28.7847 55.7984 29.338C56.1445 29.667 56.5596 29.892 57.0097 30.065C57.4597 30.2381 57.9439 30.3071 58.463 30.3071C59.017 30.3071 59.5532 30.2203 60.0374 30.0131C60.5216 29.8229 60.9545 29.5288 61.3177 29.165C61.8368 28.6459 62.2177 28.0058 62.494 27.2788C62.7539 26.5517 62.892 25.7734 62.892 24.9774L62.8941 24.978ZM65.0396 24.8748C65.0396 25.913 64.8494 26.917 64.4856 27.8512C64.1046 28.8032 63.5684 29.6164 62.8763 30.2907C62.2881 30.8447 61.6302 31.2769 60.9039 31.571C60.1947 31.8651 59.3808 32.021 58.4644 32.021C57.5992 32.021 56.8031 31.8651 56.0419 31.5881C55.2978 31.294 54.6228 30.8611 54.0346 30.3078C53.3596 29.6506 52.8234 28.8367 52.4602 27.8854C52.0793 26.9334 51.9062 25.913 51.9062 24.857C51.9062 23.801 52.0622 22.8846 52.3734 22.0194C52.6846 21.1543 53.1865 20.393 53.8616 19.7009C54.4497 19.0779 55.1597 18.5937 55.9551 18.2647C56.7511 17.9186 57.5814 17.7627 58.4815 17.7627C59.3815 17.7627 60.2466 17.9186 61.0078 18.2127C61.7691 18.5239 62.427 18.9917 63.0323 19.6141C63.7073 20.3062 64.2086 21.1023 64.5376 21.9674C64.8665 22.8497 65.0396 23.8188 65.0396 24.8748Z" fill="white"/>
<path fill-rule="evenodd" clip-rule="evenodd" d="M74.7585 30.0142V31.7445C74.6894 31.7445 74.3085 31.7274 74.0664 31.7445H73.4434C71.6091 31.7445 70.2077 31.3635 69.2728 30.6023C68.3386 29.8411 67.8715 28.6641 67.8715 27.0726C67.8715 26.0864 67.8715 25.0304 67.8886 23.889C67.9057 22.7468 67.9057 21.3455 67.9057 19.6842H65.6562V18.1099H68.0267V15.4453H69.9649V18.1099H74.7578V19.6842H69.9649C69.9649 19.8573 69.9649 20.4284 69.9478 21.3284C69.9307 22.2626 69.9307 22.9547 69.9307 23.4048V26.7273C69.9307 27.8865 70.2419 28.7346 70.865 29.2536C71.5051 29.7556 72.4571 30.0148 73.7723 30.0148H74.7585V30.0142Z" fill="white"/>
<path fill-rule="evenodd" clip-rule="evenodd" d="M84.5386 27.2431V24.4917C84.1405 24.5088 83.4484 24.5786 82.4622 24.7167C81.476 24.8549 80.6628 25.0628 79.9878 25.3227C79.4858 25.5128 79.0358 25.7898 78.6555 26.1707C78.2575 26.5339 78.0673 27.001 78.0673 27.555C78.0673 28.178 78.2233 28.6622 78.5693 29.0261C78.8983 29.407 79.3483 29.6833 79.9187 29.8741C80.3516 30.0301 80.8358 30.1511 81.372 30.2202C81.9082 30.2722 82.4622 30.3071 83.0504 30.3071H83.7076C83.9675 30.29 84.2438 30.2722 84.5379 30.2722V27.2438L84.5386 27.2431ZM86.5979 24.0246C86.5979 26.2398 86.5979 28.0392 86.5808 29.4405V31.6899C86.4768 31.707 86.0617 31.7419 85.3176 31.7939C84.5734 31.8459 83.6214 31.8808 82.4451 31.8808C81.7181 31.8808 80.974 31.8117 80.2299 31.6729C79.5029 31.5518 78.8627 31.3617 78.3265 31.1018C77.5995 30.7728 77.0285 30.3228 76.5791 29.7524C76.1462 29.1813 75.9219 28.4892 75.9219 27.676C75.9219 26.8628 76.1818 26.1016 76.7009 25.4786C77.22 24.8555 77.947 24.3535 78.8812 23.9562C79.4694 23.7141 80.2483 23.5062 81.2175 23.316C82.1866 23.1259 83.2938 22.97 84.5399 22.8831C84.488 22.1739 84.2978 21.6028 84.0037 21.1528C83.7097 20.7377 83.2767 20.3916 82.7057 20.1495C82.3076 19.9936 81.8754 19.8896 81.3905 19.8205C80.9063 19.7514 80.3523 19.7166 79.6944 19.7166C79.2963 19.7166 78.9503 19.7166 78.6733 19.7337C78.3963 19.7508 78.016 19.7856 77.5311 19.8027V18.0724C77.6522 18.0724 78.1371 18.0034 78.5344 17.9685C78.9325 17.9514 79.4865 17.9336 80.1786 17.9336C81.2339 17.9336 82.1688 18.0546 82.9991 18.2797C83.8293 18.4876 84.5044 18.8507 85.0583 19.3349C85.5603 19.8021 85.9584 20.3731 86.2176 21.0653C86.4775 21.7225 86.5985 22.7265 86.5985 24.0246H86.5979Z" fill="white"/>
<path fill-rule="evenodd" clip-rule="evenodd" d="M100.25 31.6757H98.1384C98.1384 31.4158 98.1555 30.5855 98.1732 29.1841C98.1732 27.7828 98.1903 26.9176 98.1903 26.5887C98.1903 26.1216 98.1903 25.4294 98.1732 24.5294C98.1732 23.6123 98.1732 22.955 98.1561 22.5221C98.139 21.501 97.9311 20.7747 97.568 20.3418C97.2048 19.8917 96.5647 19.6667 95.6646 19.6667C95.1284 19.6667 94.4363 19.8227 93.6402 20.1509C92.8271 20.4621 92.0139 20.8779 91.2007 21.3622C91.2007 21.4661 91.2007 21.9852 91.1836 22.9543C91.1665 23.9234 91.1665 24.8057 91.1665 25.6018C91.1665 26.64 91.1836 27.8861 91.2014 29.3565C91.2363 30.8276 91.2363 31.5888 91.2363 31.675H89.125C89.125 31.6059 89.125 31.0519 89.1421 30.0308C89.1592 28.9927 89.177 27.4525 89.177 25.411C89.177 24.4767 89.177 23.3688 89.1599 22.1056C89.1599 20.8773 89.1428 19.5272 89.125 18.1081H91.2185L91.2014 19.6483L91.2185 19.6831C92.4646 18.9561 93.5028 18.4548 94.3508 18.1778C95.1811 17.9009 95.8739 17.7627 96.4272 17.7627C97.5693 17.7627 98.5036 18.1088 99.1957 18.8358C99.8878 19.5628 100.234 20.549 100.234 21.7773C100.234 22.9024 100.217 23.8708 100.217 24.7017C100.2 25.5149 100.182 26.1729 100.182 26.692C100.182 27.5051 100.199 28.5262 100.217 29.7374C100.252 30.9658 100.252 31.6066 100.252 31.6757H100.25Z" fill="white"/>
<path fill-rule="evenodd" clip-rule="evenodd" d="M113.317 31.6724H111.258V30.098C110.635 30.5131 109.839 30.9283 108.904 31.3612C107.97 31.7941 107.053 32.0184 106.153 32.0184C104.925 32.0184 103.956 31.6553 103.246 30.9112C102.553 30.1842 102.207 29.146 102.207 27.8308C102.207 27.1216 102.207 26.2564 102.225 25.2695C102.242 24.2833 102.242 23.5563 102.242 23.1241C102.242 22.3109 102.242 21.3069 102.207 20.1306C102.19 18.9193 102.172 18.2614 102.172 18.1062H104.3C104.3 18.2101 104.283 18.8674 104.265 20.0266C104.248 21.1858 104.248 22.1201 104.248 22.83C104.248 23.4359 104.248 24.2142 104.265 25.1314V27.0867C104.3 28.142 104.473 28.921 104.819 29.4052C105.165 29.9072 105.736 30.1493 106.515 30.1493C107.294 30.1493 108.194 29.9414 109.146 29.5091C110.098 29.0762 110.79 28.696 111.239 28.3841C111.239 28.263 111.239 27.7781 111.256 26.8959V23.6083C111.256 22.6563 111.256 21.5319 111.239 20.2338C111.204 18.9357 111.204 18.2094 111.204 18.1055H113.316C113.316 18.2614 113.316 18.7627 113.299 19.6108C113.281 20.4588 113.264 21.9122 113.264 23.9543C113.264 25.1136 113.264 26.1347 113.281 26.9998C113.281 27.8821 113.298 29.4223 113.316 31.6717L113.317 31.6724Z" fill="white"/>
<path fill-rule="evenodd" clip-rule="evenodd" d="M126.565 31.6757H124.437C124.454 31.4158 124.454 30.5855 124.471 29.1841C124.489 27.7828 124.489 26.9176 124.489 26.5887C124.489 26.1216 124.489 25.4294 124.489 24.5294C124.489 23.6123 124.471 22.955 124.471 22.5221C124.437 21.501 124.246 20.7747 123.866 20.3418C123.502 19.8917 122.879 19.6667 121.962 19.6667C121.426 19.6667 120.751 19.8227 119.938 20.1509C119.142 20.4621 118.329 20.8779 117.498 21.3622C117.498 21.4661 117.498 21.9852 117.481 22.9543C117.481 23.9234 117.481 24.8057 117.481 25.6018C117.481 26.64 117.481 27.8861 117.498 29.3565C117.533 30.8276 117.533 31.5888 117.533 31.675H115.422C115.422 31.6059 115.422 31.0519 115.439 30.0308C115.456 28.9927 115.474 27.4525 115.474 25.411C115.474 24.4767 115.474 23.3688 115.474 22.1056C115.457 20.8773 115.439 19.5272 115.422 18.1081H117.516L117.499 19.6483L117.516 19.6831C118.762 18.9561 119.817 18.4548 120.648 18.1778C121.479 17.9009 122.171 17.7627 122.741 17.7627C123.883 17.7627 124.8 18.1088 125.493 18.8358C126.185 19.5628 126.531 20.549 126.531 21.7773C126.531 22.9024 126.531 23.8708 126.514 24.7017C126.497 25.5149 126.497 26.1729 126.497 26.692C126.497 27.5051 126.497 28.5262 126.531 29.7374C126.549 30.9658 126.566 31.6066 126.566 31.6757H126.565Z" fill="white"/>
<path d="M126.565 31.6757H124.437C124.454 31.4158 124.454 30.5855 124.471 29.1841C124.489 27.7828 124.489 26.9176 124.489 26.5887V24.5294C124.489 23.6123 124.471 22.955 124.471 22.5221C124.437 21.501 124.246 20.7747 123.866 20.3418C123.502 19.8917 122.879 19.6667 121.962 19.6667C121.426 19.6667 120.751 19.8227 119.938 20.1509C119.142 20.4621 118.329 20.8779 117.498 21.3622C117.498 21.4661 117.498 21.9852 117.481 22.9543V25.6018C117.481 26.64 117.481 27.8861 117.498 29.3565C117.533 30.8276 117.533 31.5888 117.533 31.675H115.422C115.422 31.6059 115.422 31.0519 115.439 30.0308C115.456 28.9927 115.474 27.4525 115.474 25.411V22.1056C115.457 20.8773 115.439 19.5272 115.422 18.1081H117.516L117.499 19.6483L117.516 19.6831C118.762 18.9561 119.817 18.4548 120.648 18.1778C121.479 17.9009 122.171 17.7627 122.741 17.7627C123.883 17.7627 124.8 18.1088 125.493 18.8358C126.185 19.5628 126.531 20.549 126.531 21.7773C126.531 22.9024 126.531 23.8708 126.514 24.7017C126.497 25.5149 126.497 26.1729 126.497 26.692C126.497 27.5051 126.497 28.5262 126.531 29.7374C126.549 30.9658 126.566 31.6066 126.566 31.6757H126.565Z" fill="white"/>
<path fill-rule="evenodd" clip-rule="evenodd" d="M137.964 22.8855C137.808 21.7783 137.428 20.9131 136.822 20.2901C136.216 19.6499 135.403 19.3381 134.399 19.3381C133.396 19.3381 132.565 19.667 131.89 20.3072C131.215 20.9473 130.748 21.7954 130.489 22.8855H137.964ZM140.04 24.3738H130.333C130.35 25.3258 130.541 26.208 130.938 26.9863C131.336 27.7824 131.941 28.4397 132.755 28.9588C133.274 29.2877 133.862 29.5298 134.52 29.7029C135.178 29.8759 135.974 29.945 136.909 29.945C137.428 29.945 137.895 29.945 138.31 29.9101C138.743 29.8752 139.002 29.8752 139.106 29.8581L139.141 31.6233C139.072 31.6233 138.553 31.6753 138.137 31.6924C137.739 31.7095 137.272 31.7273 136.718 31.7273C135.299 31.7273 134.053 31.5371 132.98 31.1733C131.925 30.7923 131.06 30.2732 130.368 29.6331C129.797 29.0791 129.295 28.387 128.896 27.5396C128.481 26.6916 128.273 25.7402 128.273 24.702C128.273 23.6809 128.429 22.7638 128.741 21.9335C129.035 21.1374 129.502 20.3762 130.108 19.667C130.627 19.0611 131.284 18.5768 132.08 18.2479C132.859 17.9189 133.672 17.7637 134.503 17.7637C135.333 17.7637 136.077 17.8847 136.718 18.1268C137.376 18.3867 137.929 18.767 138.396 19.269C138.932 19.8401 139.33 20.5493 139.607 21.3625C139.884 22.2105 140.022 23.2138 140.04 24.3731V24.3738Z" fill="white"/>
<path d="M137.964 22.8855C137.808 21.7783 137.428 20.9131 136.822 20.2901C136.216 19.6499 135.403 19.3381 134.399 19.3381C133.396 19.3381 132.565 19.667 131.89 20.3072C131.215 20.9473 130.748 21.7954 130.489 22.8855H137.964ZM140.04 24.3738H130.333C130.35 25.3258 130.541 26.208 130.938 26.9863C131.336 27.7824 131.941 28.4397 132.755 28.9588C133.274 29.2877 133.862 29.5298 134.52 29.7029C135.178 29.8759 135.974 29.945 136.909 29.945C137.428 29.945 137.895 29.945 138.31 29.9101C138.743 29.8752 139.002 29.8752 139.106 29.8581L139.141 31.6233C139.072 31.6233 138.553 31.6753 138.137 31.6924C137.739 31.7095 137.272 31.7273 136.718 31.7273C135.299 31.7273 134.053 31.5371 132.98 31.1733C131.925 30.7923 131.06 30.2732 130.368 29.6331C129.797 29.0791 129.295 28.387 128.896 27.5396C128.481 26.6916 128.273 25.7402 128.273 24.702C128.273 23.6638 128.429 22.7638 128.741 21.9335C129.035 21.1374 129.502 20.3762 130.108 19.667C130.627 19.0611 131.284 18.5768 132.08 18.2479C132.859 17.9189 133.672 17.7637 134.503 17.7637C135.333 17.7637 136.077 17.8847 136.718 18.1268C137.376 18.3867 137.929 18.767 138.396 19.269C138.932 19.8401 139.33 20.5493 139.607 21.3625C139.884 22.2105 140.022 23.2138 140.04 24.3731V24.3738Z" fill="white"/>
<path fill-rule="evenodd" clip-rule="evenodd" d="M149.601 27.7292C149.601 28.4043 149.445 28.9924 149.133 29.5115C148.805 30.0306 148.372 30.4458 147.87 30.7747C147.316 31.1037 146.659 31.3629 145.915 31.5359C145.171 31.709 144.341 31.7958 143.441 31.7958C143.008 31.7958 142.54 31.7787 142.073 31.7438C141.606 31.709 141.208 31.6919 141.156 31.6748L141.191 29.9096C141.278 29.9267 141.589 29.9444 142.125 29.9786C142.662 30.0306 143.216 30.0477 143.752 30.0477C144.064 30.0477 144.461 30.0128 144.946 29.9609C145.448 29.9089 145.846 29.8049 146.174 29.6668C146.624 29.4767 146.953 29.2339 147.16 28.9398C147.385 28.6628 147.489 28.3167 147.489 27.9016C147.489 27.5384 147.385 27.2443 147.212 27.0193C147.022 26.7943 146.762 26.5693 146.433 26.3443C146.07 26.1193 145.585 25.8601 144.962 25.5831C144.339 25.3061 143.82 25.0469 143.388 24.8041C142.8 24.4232 142.333 23.9909 142.021 23.4889C141.71 22.9869 141.537 22.4159 141.537 21.7586C141.537 21.1014 141.727 20.5125 142.09 19.9763C142.454 19.4572 142.939 19.0243 143.544 18.7131C144.08 18.419 144.669 18.2289 145.291 18.1421C145.949 18.0381 146.554 18.0039 147.16 18.0039C147.714 18.0039 148.164 18.0039 148.51 18.021C148.856 18.0381 149.237 18.073 149.289 18.073L149.255 19.8382C149.203 19.8382 148.926 19.8211 148.424 19.7862C147.939 19.7513 147.402 19.7342 146.831 19.7342C146.416 19.7342 146.018 19.7691 145.655 19.8382C145.274 19.9072 144.963 20.0112 144.703 20.1494C144.322 20.3395 144.046 20.5823 143.873 20.8586C143.7 21.1356 143.631 21.3777 143.631 21.6376C143.631 22.0007 143.735 22.3126 143.977 22.5718C144.202 22.8317 144.479 23.0389 144.79 23.229C145.153 23.437 145.655 23.6962 146.295 23.9903C146.935 24.2843 147.402 24.5264 147.679 24.6995C148.32 25.0975 148.787 25.5298 149.116 26.0147C149.445 26.4989 149.6 27.0699 149.6 27.7279L149.601 27.7292Z" fill="white"/>
<path d="M149.601 27.7292C149.601 28.4043 149.445 28.9924 149.133 29.5115C148.805 30.0306 148.372 30.4458 147.87 30.7747C147.316 31.1037 146.659 31.3629 145.915 31.5359C145.171 31.709 144.341 31.7958 143.441 31.7958C143.008 31.7958 142.54 31.7787 142.073 31.7438C141.606 31.709 141.208 31.6919 141.156 31.6748L141.191 29.9096C141.278 29.9267 141.589 29.9444 142.125 29.9786C142.662 30.0306 143.216 30.0477 143.752 30.0477C144.064 30.0477 144.461 30.0128 144.946 29.9609C145.448 29.9089 145.846 29.8049 146.174 29.6668C146.624 29.4767 146.953 29.2339 147.16 28.9398C147.385 28.6628 147.489 28.3167 147.489 27.9016C147.489 27.5384 147.385 27.2443 147.212 27.0193C147.022 26.7943 146.762 26.5693 146.433 26.3443C146.07 26.1193 145.585 25.8601 144.962 25.5831C144.339 25.3061 143.82 25.0469 143.388 24.8041C142.8 24.4232 142.333 23.9909 142.021 23.4889C141.71 22.9869 141.537 22.4159 141.537 21.7586C141.537 21.1014 141.727 20.5125 142.09 19.9763C142.454 19.4572 142.939 19.0243 143.544 18.7131C144.08 18.419 144.669 18.2289 145.291 18.1421C145.949 18.0381 146.554 18.0039 147.16 18.0039C147.714 18.0039 148.164 18.0039 148.51 18.021C148.856 18.0381 149.237 18.073 149.289 18.073L149.255 19.8382C149.203 19.8382 148.926 19.8211 148.424 19.7862C147.939 19.7513 147.402 19.7342 146.831 19.7342C146.416 19.7342 146.018 19.7691 145.655 19.8382C145.274 19.9072 144.963 20.0112 144.703 20.1494C144.322 20.3395 144.046 20.5823 143.873 20.8586C143.7 21.1356 143.631 21.3777 143.631 21.6376C143.631 22.0007 143.735 22.3126 143.977 22.5718C144.202 22.8317 144.479 23.0389 144.79 23.229C145.153 23.437 145.655 23.6962 146.295 23.9903C146.935 24.2843 147.402 24.5264 147.679 24.6995C148.32 25.0975 148.787 25.5298 149.116 26.0147C149.445 26.4989 149.6 27.0699 149.6 27.7279L149.601 27.7292Z" fill="white"/>
<path fill-rule="evenodd" clip-rule="evenodd" d="M24.6402 3.37309V27.9969C24.6402 30.4884 24.5883 32.9806 23.256 34.2438C22.979 34.4859 22.65 34.659 22.2178 34.7978C21.4217 35.0399 20.6256 35.2478 19.7783 35.5248C18.9302 35.7847 18.1861 36.0439 17.3209 36.234C16.3176 36.459 15.5735 36.4939 14.2925 35.6281C11.8701 33.2576 9.67267 31.0595 7.21535 28.7239C5.96925 27.5469 4.8271 26.3015 3.58168 25.1422C2.49152 24.1389 1.5053 23.031 0.398037 22.0106C0.328961 21.9415 0.259887 21.8724 0.173029 21.7856C0.121052 21.7336 0 21.6474 0 21.5435C1.29808 21.3184 2.66455 21.0592 4.0146 20.7994C4.18763 20.7645 4.44753 20.6954 4.56858 20.6954C4.70673 20.7125 4.93174 20.9895 5.07057 21.1283C9.74243 25.4719 14.588 30.0227 19.1908 34.2965C19.3118 34.0544 19.3467 33.7774 19.4158 33.5004C19.4849 33.2234 19.6059 32.9293 19.5717 32.6353C19.5717 32.5484 19.5026 32.5142 19.3987 32.4273C16.7164 29.918 13.9649 27.4614 11.2833 24.9692C9.70892 23.4981 8.08187 22.0619 6.49039 20.5737C6.43841 20.5217 6.33446 20.4868 6.33446 20.3835C7.77069 20.1236 9.18982 19.8644 10.6083 19.5874C13.6709 22.2 16.6993 24.9172 19.7276 27.5127V26.1284C19.7276 25.9725 19.7625 25.7824 19.7276 25.6613C19.6928 25.5403 19.4165 25.3672 19.2776 25.2462C17.2532 23.533 15.263 21.7856 13.2386 20.0723C13.0136 19.8644 12.7886 19.6743 12.5465 19.4664C12.4945 19.4315 12.3564 19.3624 12.3906 19.2585C13.6709 19.0335 15.0031 18.7743 16.215 18.5493C16.2499 18.5493 16.3019 18.5322 16.3361 18.5322C16.4571 18.5493 16.6473 18.7572 16.769 18.8611C17.7381 19.6743 18.7763 20.4875 19.7283 21.2494V0.0519785C19.7283 0.0170986 19.7283 0 19.7454 0C21.3896 1.10727 23.0159 2.24941 24.6423 3.37446L24.6402 3.37309Z" fill="white"/>
<path fill-rule="evenodd" clip-rule="evenodd" d="M24.5799 33.948C24.8398 33.8098 25.0641 33.619 25.2549 33.394C25.6181 32.9788 25.8951 32.3907 26.051 31.7676C26.3451 30.4873 26.38 28.9471 26.38 27.3721V4.63449C26.38 4.61739 26.3971 4.59961 26.4148 4.59961C27.7991 5.51675 29.2182 6.53783 30.6196 7.50695C30.7235 7.57602 30.8795 7.6451 30.8966 7.69708C30.9314 7.81813 30.8966 8.09512 30.8966 8.32013V26.5069C30.8966 27.701 30.8795 28.9123 30.6887 29.9505C30.5505 30.6255 30.3255 31.2656 30.0136 31.7498C29.9268 31.888 29.8577 32.0097 29.7537 32.1308C29.6676 32.2347 29.5458 32.3038 29.4248 32.4249C29.0096 32.8058 28.2826 32.9789 27.6425 33.169C26.6734 33.4631 25.6523 33.7749 24.6832 34.069C24.5101 34.1039 24.3371 34.1559 24.1641 34.1901L24.5792 33.948H24.5799Z" fill="white"/>
<path fill-rule="evenodd" clip-rule="evenodd" d="M30.8757 32.1483C31.1178 32.0792 31.3257 31.9232 31.4987 31.7502C32.5198 30.7982 32.831 28.9988 32.831 27.0955C32.831 19.2913 32.8659 16.782 32.8481 8.96066C32.8481 8.94356 32.8481 8.92578 32.8652 8.92578C33.5573 9.34092 34.2324 9.86001 34.9416 10.3449C35.4436 10.691 35.9627 11.037 36.4989 11.4002C36.637 11.5042 36.966 11.6601 37.0009 11.7811C37.0528 11.9713 37.0009 12.5423 37.0009 12.8022V22.5618C37.0009 23.9111 37.0357 25.2961 36.966 26.6106C36.9311 27.2336 36.8791 27.8909 36.741 28.4448C36.585 28.9988 36.4469 29.535 36.1699 29.933C36.014 30.1581 35.8758 30.3482 35.7028 30.5212C35.5127 30.6942 35.3218 30.8324 35.0797 30.9541C34.6126 31.1791 34.0244 31.3173 33.4534 31.4732L30.875 32.1483H30.8757Z" fill="white"/>
</svg>
